<svg width="105" height="92" viewBox="0 0 105 92" fill="none" xmlns="http://www.w3.org/2000/svg">
<g opacity="0.5">
<g clip-path="url(#clip0_3221_10878)">
<path d="M82.4191 90.9664C64.473 81.3184 46.5251 71.6704 28.5791 62.0224C36.6591 41.3489 44.7391 20.6735 52.8192 0C70.2127 10.1473 87.6043 20.2966 104.998 30.4439C97.4722 50.6181 89.9447 70.7922 82.4191 90.9664Z" fill="#D6D8D6"/>
<path d="M52.8194 0C43.0589 2.47126 33.2984 4.94252 23.538 7.41378C15.692 26.5641 7.84599 45.7144 0 64.8647C9.52645 63.9166 19.0529 62.9705 28.5793 62.0224C36.6594 41.3489 44.7394 20.6735 52.8194 0Z" fill="#F4F4F4"/>
<path d="M51.0334 92C34.0236 82.9543 17.0118 73.9105 0 64.8647C9.52645 63.9166 19.0529 62.9705 28.5793 62.0224C46.5254 71.6704 64.4733 81.3184 82.4193 90.9664C71.9567 91.3103 61.496 91.6561 51.0334 92Z" fill="#CFD3CF"/>
</g>
</g>
<defs>
<clipPath id="clip0_3221_10878">
<rect width="105" height="92" fill="white"/>
</clipPath>
</defs>
</svg>
