<svg width="63" height="63" viewBox="0 0 63 63" fill="none" xmlns="http://www.w3.org/2000/svg">
<g opacity="0.5">
<path d="M46.3156 49.061C42.74 50.8913 39.1641 52.7231 35.5885 54.5534L40.5722 48.0909C44.1356 46.3536 47.6989 44.6162 51.2623 42.8789C49.613 44.9403 47.964 47.0002 46.3148 49.0616L46.3156 49.061Z" fill="#CFD3CF"/>
<path d="M53.7227 25.739C51.019 21.9515 48.3161 18.1635 45.6124 14.376C42.0643 16.1522 38.5157 17.9274 34.9677 19.7036C32.2657 15.86 29.5628 12.017 26.8608 8.17343C23.3197 9.94508 19.7785 11.7167 16.2369 13.4875C18.9187 17.3417 21.6002 21.1973 24.2821 25.0515C20.5636 26.9119 16.8458 28.7733 13.1273 30.6338C15.694 34.4564 18.2604 38.2805 20.8271 42.1032C24.6201 40.2156 28.4138 38.3288 32.206 36.4417C34.998 40.4543 37.7892 44.4675 40.5807 48.4793C44.1421 46.6119 47.7021 44.7443 51.2635 42.877C48.4998 38.9459 45.7361 35.0149 42.9721 31.0853C46.5553 29.3026 50.1393 27.5193 53.7225 25.7367L53.7227 25.739Z" fill="#D6D8D6"/>
<path d="M24.5814 24.9822C22.2474 26.123 19.914 27.2647 17.58 28.4055C15.684 25.5937 13.7881 22.7819 11.8936 19.9704C13.3409 17.8101 14.7885 15.6484 16.2358 13.4881C19.0176 17.3199 21.7987 21.1509 24.5805 24.9827L24.5814 24.9822Z" fill="#F4F4F4"/>
<path d="M40.5728 48.0922C38.9113 50.2465 37.2506 52.4002 35.589 54.5546C32.8671 50.7239 30.1452 46.8933 27.4227 43.0617C29.0497 40.8049 30.6763 38.5494 32.3033 36.2925C35.0598 40.2257 37.8172 44.1584 40.5737 48.0916L40.5728 48.0922Z" fill="#F4F4F4"/>
<path d="M20.8257 42.1056C19.2319 44.2297 17.6381 46.3539 16.0452 48.4774C13.5318 44.6952 11.0178 40.912 8.50445 37.1298L13.1269 30.6356C15.6935 34.4583 18.2599 38.2824 20.8266 42.1051L20.8257 42.1056Z" fill="#F4F4F4"/>
<path d="M27.4227 43.0615C23.6301 44.8663 19.838 46.6721 16.0463 48.4764C17.6401 46.3523 19.2339 44.2282 20.8268 42.1046C24.6526 40.167 28.4776 38.2299 32.3034 36.2922C30.6764 38.5491 29.0497 40.8046 27.4227 43.0615Z" fill="#CFD3CF"/>
<path d="M48.2084 32.3718C47.1528 32.9593 46.0972 33.5468 45.0416 34.1344C44.3373 33.1002 43.633 32.0661 42.9282 31.0312C46.52 29.2579 50.1111 27.4838 53.7037 25.7099C51.8719 27.9298 50.0397 30.1511 48.2079 32.3709L48.2084 32.3718Z" fill="#CFD3CF"/>
</g>
</svg>
