<svg width="84" height="83" viewBox="0 0 84 83" fill="none" xmlns="http://www.w3.org/2000/svg">
<g opacity="0.5" clip-path="url(#clip0_3221_10888)">
<path d="M71.1251 54.2659C51.5111 57.0814 31.8965 59.8981 12.2824 62.7136C12.0443 62.7481 11.8175 62.6013 11.7503 62.37C9.89389 55.9192 8.03679 49.4666 6.17916 43.0153C25.9298 40.064 45.6804 37.1128 65.4311 34.1615C67.4593 40.6569 69.4892 47.1516 71.5174 53.6469C71.6058 53.9303 71.4195 54.2254 71.1259 54.2677L71.1251 54.2659Z" fill="#D6D8D6"/>
<path d="M65.4312 34.1613C45.6806 37.1126 25.9299 40.0638 6.17928 43.0151C17.1727 31.0514 28.1666 19.0864 39.1613 7.12318C39.643 6.59885 40.4699 6.6025 40.9465 7.12962C49.1074 16.1394 57.269 25.151 65.4299 34.1608L65.4312 34.1613Z" fill="#F4F4F4"/>
</g>
<defs>
<clipPath id="clip0_3221_10888">
<rect width="64.414" height="62.5469" fill="white" transform="translate(24.4321) rotate(22.9931)"/>
</clipPath>
</defs>
</svg>
